<mxfile host="Electron" modified="2023-11-10T13:08:39.039Z" agent="Mozilla/5.0 (Windows NT 10.0; Win64; x64) AppleWebKit/537.36 (KHTML, like Gecko) draw.io/22.0.3 Chrome/114.0.5735.289 Electron/25.8.4 Safari/537.36" etag="4zzI2eRzUXlBb064XpO7" version="22.0.3" type="device">
  <diagram id="rRmtudpdEV8kB-wlNoaQ" name="Page-1">
    <mxGraphModel dx="1418" dy="2482" grid="1" gridSize="10" guides="1" tooltips="1" connect="1" arrows="1" fold="1" page="1" pageScale="1" pageWidth="1169" pageHeight="1654" math="0" shadow="0">
      <root>
        <mxCell id="0" />
        <mxCell id="1" parent="0" />
        <mxCell id="tulF2AGn9xkQMnw531Gr-1" value="Начало" style="rounded=1;whiteSpace=wrap;html=1;" parent="1" vertex="1">
          <mxGeometry x="572" y="-1620" width="120" height="40" as="geometry" />
        </mxCell>
        <mxCell id="tulF2AGn9xkQMnw531Gr-2" value="Конец" style="rounded=1;whiteSpace=wrap;html=1;" parent="1" vertex="1">
          <mxGeometry x="575" y="-520" width="120" height="50" as="geometry" />
        </mxCell>
        <mxCell id="tulF2AGn9xkQMnw531Gr-3" value="Интервал времени 00:01-08:00&lt;span id=&quot;docs-internal-guid-c8c13e67-7fff-5ebe-985f-e387cd297909&quot;&gt;&lt;/span&gt;&lt;span id=&quot;docs-internal-guid-c8c13e67-7fff-5ebe-985f-e387cd297909&quot;&gt;&lt;/span&gt;&lt;span id=&quot;docs-internal-guid-c8c13e67-7fff-5ebe-985f-e387cd297909&quot;&gt;&lt;/span&gt;&lt;span id=&quot;docs-internal-guid-c8c13e67-7fff-5ebe-985f-e387cd297909&quot;&gt;&lt;/span&gt;&lt;span id=&quot;docs-internal-guid-c8c13e67-7fff-5ebe-985f-e387cd297909&quot;&gt;&lt;/span&gt;&lt;span id=&quot;docs-internal-guid-c8c13e67-7fff-5ebe-985f-e387cd297909&quot;&gt;&lt;/span&gt;" style="rhombus;whiteSpace=wrap;html=1;" parent="1" vertex="1">
          <mxGeometry x="562" y="-1290" width="140" height="110" as="geometry" />
        </mxCell>
        <mxCell id="NY18Pyyiv85RpVjz19RC-2" style="edgeStyle=orthogonalEdgeStyle;rounded=0;orthogonalLoop=1;jettySize=auto;html=1;exitX=0.5;exitY=1;exitDx=0;exitDy=0;" parent="1" edge="1">
          <mxGeometry relative="1" as="geometry">
            <mxPoint x="641.5" y="-1265" as="sourcePoint" />
            <mxPoint x="641.5" y="-1265" as="targetPoint" />
          </mxGeometry>
        </mxCell>
        <mxCell id="NY18Pyyiv85RpVjz19RC-7" value="" style="endArrow=classic;html=1;rounded=0;exitX=0.5;exitY=1;exitDx=0;exitDy=0;" parent="1" source="tulF2AGn9xkQMnw531Gr-3" edge="1">
          <mxGeometry width="50" height="50" relative="1" as="geometry">
            <mxPoint x="482" y="-1120" as="sourcePoint" />
            <mxPoint x="631.8405994550408" y="-1179.5640326975476" as="targetPoint" />
          </mxGeometry>
        </mxCell>
        <mxCell id="NY18Pyyiv85RpVjz19RC-14" value="" style="endArrow=classic;html=1;rounded=0;exitX=1;exitY=0.5;exitDx=0;exitDy=0;entryX=0;entryY=0.5;entryDx=0;entryDy=0;" parent="1" source="tulF2AGn9xkQMnw531Gr-3" target="NY18Pyyiv85RpVjz19RC-49" edge="1">
          <mxGeometry width="50" height="50" relative="1" as="geometry">
            <mxPoint x="732" y="-1210" as="sourcePoint" />
            <mxPoint x="772" y="-1235" as="targetPoint" />
          </mxGeometry>
        </mxCell>
        <mxCell id="NY18Pyyiv85RpVjz19RC-15" value="Да" style="text;html=1;align=center;verticalAlign=middle;resizable=0;points=[];autosize=1;strokeColor=none;fillColor=none;" parent="1" vertex="1">
          <mxGeometry x="712" y="-1260" width="40" height="30" as="geometry" />
        </mxCell>
        <mxCell id="NY18Pyyiv85RpVjz19RC-27" value="Нет" style="text;html=1;align=center;verticalAlign=middle;resizable=0;points=[];autosize=1;strokeColor=none;fillColor=none;" parent="1" vertex="1">
          <mxGeometry x="636.5" y="-1180" width="40" height="30" as="geometry" />
        </mxCell>
        <mxCell id="NY18Pyyiv85RpVjz19RC-31" value="Нет" style="text;html=1;align=center;verticalAlign=middle;resizable=0;points=[];autosize=1;strokeColor=none;fillColor=none;" parent="1" vertex="1">
          <mxGeometry x="636.5" y="-1030" width="40" height="30" as="geometry" />
        </mxCell>
        <mxCell id="NY18Pyyiv85RpVjz19RC-34" value="Нет" style="text;html=1;align=center;verticalAlign=middle;resizable=0;points=[];autosize=1;strokeColor=none;fillColor=none;" parent="1" vertex="1">
          <mxGeometry x="631.5" y="-880" width="40" height="30" as="geometry" />
        </mxCell>
        <mxCell id="NY18Pyyiv85RpVjz19RC-35" value="Интервал времени 08:01-12:00&lt;span id=&quot;docs-internal-guid-c8c13e67-7fff-5ebe-985f-e387cd297909&quot;&gt;&lt;/span&gt;&lt;span id=&quot;docs-internal-guid-c8c13e67-7fff-5ebe-985f-e387cd297909&quot;&gt;&lt;/span&gt;&lt;span id=&quot;docs-internal-guid-c8c13e67-7fff-5ebe-985f-e387cd297909&quot;&gt;&lt;/span&gt;&lt;span id=&quot;docs-internal-guid-c8c13e67-7fff-5ebe-985f-e387cd297909&quot;&gt;&lt;/span&gt;&lt;span id=&quot;docs-internal-guid-c8c13e67-7fff-5ebe-985f-e387cd297909&quot;&gt;&lt;/span&gt;&lt;span id=&quot;docs-internal-guid-c8c13e67-7fff-5ebe-985f-e387cd297909&quot;&gt;&lt;/span&gt;" style="rhombus;whiteSpace=wrap;html=1;" parent="1" vertex="1">
          <mxGeometry x="563" y="-1140" width="140" height="110" as="geometry" />
        </mxCell>
        <mxCell id="NY18Pyyiv85RpVjz19RC-36" value="Интервал времени 12:01-18:00&lt;span id=&quot;docs-internal-guid-c8c13e67-7fff-5ebe-985f-e387cd297909&quot;&gt;&lt;/span&gt;&lt;span id=&quot;docs-internal-guid-c8c13e67-7fff-5ebe-985f-e387cd297909&quot;&gt;&lt;/span&gt;&lt;span id=&quot;docs-internal-guid-c8c13e67-7fff-5ebe-985f-e387cd297909&quot;&gt;&lt;/span&gt;&lt;span id=&quot;docs-internal-guid-c8c13e67-7fff-5ebe-985f-e387cd297909&quot;&gt;&lt;/span&gt;&lt;span id=&quot;docs-internal-guid-c8c13e67-7fff-5ebe-985f-e387cd297909&quot;&gt;&lt;/span&gt;&lt;span id=&quot;docs-internal-guid-c8c13e67-7fff-5ebe-985f-e387cd297909&quot;&gt;&lt;/span&gt;" style="rhombus;whiteSpace=wrap;html=1;" parent="1" vertex="1">
          <mxGeometry x="563.5" y="-990" width="140" height="110" as="geometry" />
        </mxCell>
        <mxCell id="NY18Pyyiv85RpVjz19RC-37" value="Интервал времени 18:01-22:00&lt;span id=&quot;docs-internal-guid-c8c13e67-7fff-5ebe-985f-e387cd297909&quot;&gt;&lt;/span&gt;&lt;span id=&quot;docs-internal-guid-c8c13e67-7fff-5ebe-985f-e387cd297909&quot;&gt;&lt;/span&gt;&lt;span id=&quot;docs-internal-guid-c8c13e67-7fff-5ebe-985f-e387cd297909&quot;&gt;&lt;/span&gt;&lt;span id=&quot;docs-internal-guid-c8c13e67-7fff-5ebe-985f-e387cd297909&quot;&gt;&lt;/span&gt;&lt;span id=&quot;docs-internal-guid-c8c13e67-7fff-5ebe-985f-e387cd297909&quot;&gt;&lt;/span&gt;&lt;span id=&quot;docs-internal-guid-c8c13e67-7fff-5ebe-985f-e387cd297909&quot;&gt;&lt;/span&gt;" style="rhombus;whiteSpace=wrap;html=1;" parent="1" vertex="1">
          <mxGeometry x="563.5" y="-840" width="140" height="110" as="geometry" />
        </mxCell>
        <mxCell id="NY18Pyyiv85RpVjz19RC-38" value="" style="endArrow=classic;html=1;rounded=0;exitX=0.5;exitY=1;exitDx=0;exitDy=0;entryX=0.5;entryY=0;entryDx=0;entryDy=0;" parent="1" source="tulF2AGn9xkQMnw531Gr-3" target="NY18Pyyiv85RpVjz19RC-35" edge="1">
          <mxGeometry width="50" height="50" relative="1" as="geometry">
            <mxPoint x="682" y="-1140" as="sourcePoint" />
            <mxPoint x="732" y="-1190" as="targetPoint" />
          </mxGeometry>
        </mxCell>
        <mxCell id="NY18Pyyiv85RpVjz19RC-39" value="" style="endArrow=classic;html=1;rounded=0;exitX=0.5;exitY=1;exitDx=0;exitDy=0;entryX=0.5;entryY=0;entryDx=0;entryDy=0;" parent="1" source="NY18Pyyiv85RpVjz19RC-35" target="NY18Pyyiv85RpVjz19RC-36" edge="1">
          <mxGeometry width="50" height="50" relative="1" as="geometry">
            <mxPoint x="592" y="-950" as="sourcePoint" />
            <mxPoint x="632" y="-990" as="targetPoint" />
          </mxGeometry>
        </mxCell>
        <mxCell id="NY18Pyyiv85RpVjz19RC-40" value="" style="endArrow=classic;html=1;rounded=0;exitX=0.5;exitY=1;exitDx=0;exitDy=0;entryX=0.5;entryY=0;entryDx=0;entryDy=0;" parent="1" source="NY18Pyyiv85RpVjz19RC-36" target="NY18Pyyiv85RpVjz19RC-37" edge="1">
          <mxGeometry width="50" height="50" relative="1" as="geometry">
            <mxPoint x="722" y="-870" as="sourcePoint" />
            <mxPoint x="772" y="-920" as="targetPoint" />
          </mxGeometry>
        </mxCell>
        <mxCell id="NY18Pyyiv85RpVjz19RC-42" value="Нет" style="text;html=1;align=center;verticalAlign=middle;resizable=0;points=[];autosize=1;strokeColor=none;fillColor=none;" parent="1" vertex="1">
          <mxGeometry x="636.5" y="-730" width="40" height="30" as="geometry" />
        </mxCell>
        <mxCell id="NY18Pyyiv85RpVjz19RC-43" value="" style="endArrow=classic;html=1;rounded=0;exitX=0.5;exitY=1;exitDx=0;exitDy=0;entryX=0.49;entryY=0;entryDx=0;entryDy=0;entryPerimeter=0;" parent="1" source="NY18Pyyiv85RpVjz19RC-37" target="3pQPG_NT8tzMiYnMXHMo-1" edge="1">
          <mxGeometry width="50" height="50" relative="1" as="geometry">
            <mxPoint x="512" y="-660" as="sourcePoint" />
            <mxPoint x="633.5" y="-665" as="targetPoint" />
          </mxGeometry>
        </mxCell>
        <mxCell id="NY18Pyyiv85RpVjz19RC-47" value="" style="endArrow=classic;html=1;rounded=0;exitX=1;exitY=0.5;exitDx=0;exitDy=0;entryX=0;entryY=0.5;entryDx=0;entryDy=0;" parent="1" source="NY18Pyyiv85RpVjz19RC-35" target="NY18Pyyiv85RpVjz19RC-51" edge="1">
          <mxGeometry width="50" height="50" relative="1" as="geometry">
            <mxPoint x="751.5" y="-1120" as="sourcePoint" />
            <mxPoint x="771.5" y="-1085" as="targetPoint" />
          </mxGeometry>
        </mxCell>
        <mxCell id="NY18Pyyiv85RpVjz19RC-48" value="Да" style="text;html=1;align=center;verticalAlign=middle;resizable=0;points=[];autosize=1;strokeColor=none;fillColor=none;" parent="1" vertex="1">
          <mxGeometry x="712" y="-1110" width="40" height="30" as="geometry" />
        </mxCell>
        <mxCell id="NY18Pyyiv85RpVjz19RC-49" value="Скорость 50 км/ч" style="rounded=0;whiteSpace=wrap;html=1;" parent="1" vertex="1">
          <mxGeometry x="771.5" y="-1255" width="120" height="40" as="geometry" />
        </mxCell>
        <mxCell id="NY18Pyyiv85RpVjz19RC-51" value="Скорость 35 км/ч" style="rounded=0;whiteSpace=wrap;html=1;" parent="1" vertex="1">
          <mxGeometry x="771.5" y="-1105" width="120" height="40" as="geometry" />
        </mxCell>
        <mxCell id="NY18Pyyiv85RpVjz19RC-52" value="" style="endArrow=classic;html=1;rounded=0;exitX=1;exitY=0.5;exitDx=0;exitDy=0;entryX=0;entryY=0.5;entryDx=0;entryDy=0;" parent="1" source="NY18Pyyiv85RpVjz19RC-36" target="NY18Pyyiv85RpVjz19RC-54" edge="1">
          <mxGeometry width="50" height="50" relative="1" as="geometry">
            <mxPoint x="712" y="-935.5" as="sourcePoint" />
            <mxPoint x="771.5" y="-935" as="targetPoint" />
          </mxGeometry>
        </mxCell>
        <mxCell id="NY18Pyyiv85RpVjz19RC-53" value="Да" style="text;html=1;align=center;verticalAlign=middle;resizable=0;points=[];autosize=1;strokeColor=none;fillColor=none;" parent="1" vertex="1">
          <mxGeometry x="712" y="-960" width="40" height="30" as="geometry" />
        </mxCell>
        <mxCell id="NY18Pyyiv85RpVjz19RC-54" value="Скорость 42 км/ч" style="rounded=0;whiteSpace=wrap;html=1;" parent="1" vertex="1">
          <mxGeometry x="771.5" y="-955" width="120" height="40" as="geometry" />
        </mxCell>
        <mxCell id="NY18Pyyiv85RpVjz19RC-56" value="Скорость 30 км/ч" style="rounded=0;whiteSpace=wrap;html=1;" parent="1" vertex="1">
          <mxGeometry x="771.5" y="-805" width="120" height="40" as="geometry" />
        </mxCell>
        <mxCell id="NY18Pyyiv85RpVjz19RC-57" value="" style="endArrow=classic;html=1;rounded=0;exitX=1;exitY=0.5;exitDx=0;exitDy=0;entryX=0;entryY=0.5;entryDx=0;entryDy=0;" parent="1" source="NY18Pyyiv85RpVjz19RC-37" target="NY18Pyyiv85RpVjz19RC-56" edge="1">
          <mxGeometry width="50" height="50" relative="1" as="geometry">
            <mxPoint x="713.5" y="-785.5" as="sourcePoint" />
            <mxPoint x="751.5" y="-785" as="targetPoint" />
          </mxGeometry>
        </mxCell>
        <mxCell id="NY18Pyyiv85RpVjz19RC-61" value="Да" style="text;html=1;align=center;verticalAlign=middle;resizable=0;points=[];autosize=1;strokeColor=none;fillColor=none;" parent="1" vertex="1">
          <mxGeometry x="712" y="-810" width="40" height="30" as="geometry" />
        </mxCell>
        <mxCell id="NY18Pyyiv85RpVjz19RC-71" value="" style="endArrow=classic;html=1;rounded=0;exitX=1;exitY=0.5;exitDx=0;exitDy=0;" parent="1" source="NY18Pyyiv85RpVjz19RC-49" edge="1">
          <mxGeometry width="50" height="50" relative="1" as="geometry">
            <mxPoint x="941.5" y="-1200" as="sourcePoint" />
            <mxPoint x="971.5" y="-1235" as="targetPoint" />
          </mxGeometry>
        </mxCell>
        <mxCell id="NY18Pyyiv85RpVjz19RC-72" value="" style="endArrow=classic;html=1;rounded=0;exitX=1;exitY=0.5;exitDx=0;exitDy=0;" parent="1" source="NY18Pyyiv85RpVjz19RC-51" edge="1">
          <mxGeometry width="50" height="50" relative="1" as="geometry">
            <mxPoint x="951.5" y="-1120" as="sourcePoint" />
            <mxPoint x="971.5" y="-1085" as="targetPoint" />
          </mxGeometry>
        </mxCell>
        <mxCell id="NY18Pyyiv85RpVjz19RC-73" value="" style="endArrow=classic;html=1;rounded=0;exitX=1;exitY=0.5;exitDx=0;exitDy=0;" parent="1" source="NY18Pyyiv85RpVjz19RC-54" edge="1">
          <mxGeometry width="50" height="50" relative="1" as="geometry">
            <mxPoint x="981.5" y="-920" as="sourcePoint" />
            <mxPoint x="971.5" y="-935" as="targetPoint" />
          </mxGeometry>
        </mxCell>
        <mxCell id="NY18Pyyiv85RpVjz19RC-74" value="" style="endArrow=classic;html=1;rounded=0;exitX=1;exitY=0.5;exitDx=0;exitDy=0;" parent="1" source="NY18Pyyiv85RpVjz19RC-56" edge="1">
          <mxGeometry width="50" height="50" relative="1" as="geometry">
            <mxPoint x="901.5" y="-785.5" as="sourcePoint" />
            <mxPoint x="971.5" y="-785" as="targetPoint" />
          </mxGeometry>
        </mxCell>
        <mxCell id="NY18Pyyiv85RpVjz19RC-76" value="" style="endArrow=classic;html=1;rounded=0;entryX=1;entryY=0.5;entryDx=0;entryDy=0;" parent="1" target="tulF2AGn9xkQMnw531Gr-2" edge="1">
          <mxGeometry width="50" height="50" relative="1" as="geometry">
            <mxPoint x="970" y="-1237.75" as="sourcePoint" />
            <mxPoint x="775.5" y="-492.25" as="targetPoint" />
            <Array as="points">
              <mxPoint x="970" y="-1207.75" />
              <mxPoint x="970" y="-492.75" />
            </Array>
          </mxGeometry>
        </mxCell>
        <mxCell id="_tToh8vuLwHnjNAhhlxJ-4" value="Пользователь ввел данные в поле &quot;Часы&quot; и &quot;Минуты&quot;" style="rounded=0;whiteSpace=wrap;html=1;" parent="1" vertex="1">
          <mxGeometry x="572" y="-1550" width="120" height="60" as="geometry" />
        </mxCell>
        <mxCell id="_tToh8vuLwHnjNAhhlxJ-5" value="" style="endArrow=classic;html=1;rounded=0;exitX=0.5;exitY=1;exitDx=0;exitDy=0;" parent="1" source="tulF2AGn9xkQMnw531Gr-1" target="_tToh8vuLwHnjNAhhlxJ-4" edge="1">
          <mxGeometry width="50" height="50" relative="1" as="geometry">
            <mxPoint x="491.75" y="-1410" as="sourcePoint" />
            <mxPoint x="541.75" y="-1460" as="targetPoint" />
          </mxGeometry>
        </mxCell>
        <mxCell id="_tToh8vuLwHnjNAhhlxJ-6" value="Данные валидны ?" style="rhombus;whiteSpace=wrap;html=1;" parent="1" vertex="1">
          <mxGeometry x="562" y="-1450" width="140.5" height="110" as="geometry" />
        </mxCell>
        <mxCell id="_tToh8vuLwHnjNAhhlxJ-7" value="" style="endArrow=classic;html=1;rounded=0;exitX=0.5;exitY=1;exitDx=0;exitDy=0;entryX=0.5;entryY=0;entryDx=0;entryDy=0;" parent="1" source="_tToh8vuLwHnjNAhhlxJ-4" target="_tToh8vuLwHnjNAhhlxJ-6" edge="1">
          <mxGeometry width="50" height="50" relative="1" as="geometry">
            <mxPoint x="391.75" y="-1360" as="sourcePoint" />
            <mxPoint x="632" y="-1460" as="targetPoint" />
          </mxGeometry>
        </mxCell>
        <mxCell id="_tToh8vuLwHnjNAhhlxJ-10" value="Да" style="text;html=1;align=center;verticalAlign=middle;resizable=0;points=[];autosize=1;strokeColor=none;fillColor=none;" parent="1" vertex="1">
          <mxGeometry x="640" y="-1330" width="40" height="30" as="geometry" />
        </mxCell>
        <mxCell id="_tToh8vuLwHnjNAhhlxJ-11" value="Поле ввода времени подсвечивается красным, появляется собщение об ошибке&lt;br&gt;&amp;nbsp;&quot; Вы ввели некорректное время&quot;" style="rounded=0;whiteSpace=wrap;html=1;" parent="1" vertex="1">
          <mxGeometry x="310" y="-1442.5" width="196" height="95" as="geometry" />
        </mxCell>
        <mxCell id="_tToh8vuLwHnjNAhhlxJ-14" value="Нет" style="text;html=1;align=center;verticalAlign=middle;resizable=0;points=[];autosize=1;strokeColor=none;fillColor=none;" parent="1" vertex="1">
          <mxGeometry x="522" y="-1430" width="40" height="30" as="geometry" />
        </mxCell>
        <mxCell id="j7YFZ9NBwcd3Pi2K1XoI-1" value="" style="endArrow=classic;html=1;rounded=0;exitX=0.5;exitY=1;exitDx=0;exitDy=0;entryX=0.5;entryY=0;entryDx=0;entryDy=0;" parent="1" source="_tToh8vuLwHnjNAhhlxJ-6" edge="1">
          <mxGeometry width="50" height="50" relative="1" as="geometry">
            <mxPoint x="490" y="-1240" as="sourcePoint" />
            <mxPoint x="632" y="-1290" as="targetPoint" />
          </mxGeometry>
        </mxCell>
        <mxCell id="j7YFZ9NBwcd3Pi2K1XoI-9" value="" style="endArrow=classic;html=1;rounded=0;exitX=0;exitY=0.5;exitDx=0;exitDy=0;entryX=1;entryY=0.5;entryDx=0;entryDy=0;" parent="1" source="_tToh8vuLwHnjNAhhlxJ-6" target="_tToh8vuLwHnjNAhhlxJ-11" edge="1">
          <mxGeometry width="50" height="50" relative="1" as="geometry">
            <mxPoint x="520" y="-1280" as="sourcePoint" />
            <mxPoint x="570" y="-1330" as="targetPoint" />
          </mxGeometry>
        </mxCell>
        <mxCell id="j7YFZ9NBwcd3Pi2K1XoI-11" value="" style="endArrow=classic;html=1;rounded=0;exitX=0.5;exitY=0;exitDx=0;exitDy=0;entryX=0;entryY=0.5;entryDx=0;entryDy=0;" parent="1" source="_tToh8vuLwHnjNAhhlxJ-11" target="_tToh8vuLwHnjNAhhlxJ-4" edge="1">
          <mxGeometry width="50" height="50" relative="1" as="geometry">
            <mxPoint x="400" y="-1520" as="sourcePoint" />
            <mxPoint x="450" y="-1570" as="targetPoint" />
            <Array as="points">
              <mxPoint x="408" y="-1520" />
            </Array>
          </mxGeometry>
        </mxCell>
        <mxCell id="pETom5Glsn3KzNN4bPEh-1" value="&lt;div&gt;&lt;br&gt;&lt;/div&gt;&lt;div&gt;Исправил согласно с замечаниями,удалил временной интервал от 22:01-00:00.&lt;/div&gt;&lt;div&gt;&lt;/div&gt;" style="rounded=0;whiteSpace=wrap;html=1;fillColor=#d5e8d4;strokeColor=#82b366;" parent="1" vertex="1">
          <mxGeometry x="10" y="-1300" width="450" height="80" as="geometry" />
        </mxCell>
        <mxCell id="3pQPG_NT8tzMiYnMXHMo-1" value="Скорость движеня равная 50 км/ч системой выставляется автоматически" style="rounded=0;whiteSpace=wrap;html=1;" vertex="1" parent="1">
          <mxGeometry x="560" y="-660" width="150" height="60" as="geometry" />
        </mxCell>
        <mxCell id="3pQPG_NT8tzMiYnMXHMo-3" value="" style="endArrow=classic;html=1;rounded=0;exitX=0.5;exitY=1;exitDx=0;exitDy=0;entryX=0.5;entryY=0;entryDx=0;entryDy=0;" edge="1" parent="1" source="3pQPG_NT8tzMiYnMXHMo-1" target="tulF2AGn9xkQMnw531Gr-2">
          <mxGeometry width="50" height="50" relative="1" as="geometry">
            <mxPoint x="660" y="-510" as="sourcePoint" />
            <mxPoint x="650" y="-530" as="targetPoint" />
          </mxGeometry>
        </mxCell>
      </root>
    </mxGraphModel>
  </diagram>
</mxfile>
